<?xml version="1.0" standalone="no"?>
<!DOCTYPE svg PUBLIC "-//W3C//DTD SVG 20010904//EN"
 "http://www.w3.org/TR/2001/REC-SVG-20010904/DTD/svg10.dtd">
<svg version="1.0" xmlns="http://www.w3.org/2000/svg"
 width="1024.000000pt" height="1024.000000pt" viewBox="0 0 1024.000000 1024.000000"
 preserveAspectRatio="xMidYMid meet">
<metadata>
Created by potrace 1.11, written by Peter Selinger 2001-2013
</metadata>
<g transform="translate(0.000000,1024.000000) scale(0.100000,-0.100000)"
fill="#000000" stroke="none">
<path d="M0 5120 l0 -5120 5120 0 5120 0 0 5120 0 5120 -5120 0 -5120 0 0
-5120z m3150 0 l0 -2900 -875 0 -875 0 0 2900 0 2900 875 0 875 0 0 -2900z
m4090 0 l0 -2900 -880 0 -880 0 0 2900 0 2900 880 0 880 0 0 -2900z m-2480 0
l0 -1450 -440 0 -440 0 0 1450 0 1450 440 0 440 0 0 -1450z m4080 0 l0 -1450
-435 0 -435 0 0 1450 0 1450 435 0 435 0 0 -1450z"/>
</g>
</svg>
